<svg width="39" height="28" viewBox="0 0 39 28" fill="none" xmlns="http://www.w3.org/2000/svg">
<path fill-rule="evenodd" clip-rule="evenodd" d="M23.5569 0.122317C23.4525 0.260868 22.565 1.95999 22.1066 2.89901L21.8027 3.52176H12.6145H3.42627L3.31688 3.71503C3.25673 3.82137 2.49228 7.36778 1.61814 11.596L0.0287881 19.2838L0.00702037 21.8505C-0.0117045 24.0533 0.00241715 24.446 0.10634 24.6206L0.227428 24.8241H2.08814H3.94885L3.99628 25.1505C4.11402 25.9609 4.83664 27.0533 5.56652 27.5242C6.44753 28.0926 7.67175 28.1584 8.57554 27.6857C9.50554 27.1994 10.0846 26.4665 10.3774 25.4051L10.5378 24.8241H11.5672H12.5967L12.6907 25.2112C12.9583 26.3126 13.5689 27.1379 14.4852 27.6364C15.0584 27.9483 15.1069 27.9593 15.9059 27.9593C16.705 27.9593 16.7535 27.9483 17.3267 27.6364C18.2452 27.1367 18.9775 26.134 19.1454 25.1462L19.2002 24.8241H24.0201H28.8399L28.8947 25.1462C29.0627 26.134 29.795 27.1367 30.7135 27.6364C31.2867 27.9483 31.3351 27.9593 32.1342 27.9593C32.9333 27.9593 32.9817 27.9483 33.555 27.6364C34.4712 27.1379 35.0818 26.3126 35.3494 25.2112L35.4434 24.8241H37.0991C38.5003 24.8241 38.7737 24.8033 38.8774 24.6892C38.9858 24.5698 39 24.0237 39 19.9795V15.4049L37.3926 11.0309C36.5085 8.62531 35.7525 6.58938 35.7125 6.50667C35.6451 6.36768 35.4225 6.35635 32.7556 6.35635C31.1694 6.35635 29.8716 6.3408 29.8716 6.32182C29.8716 6.30283 30.2403 4.98389 30.6908 3.39085C31.1414 1.7979 31.51 0.447177 31.51 0.389369C31.51 0.331646 31.4458 0.220325 31.3673 0.142159C31.2387 0.014001 30.852 0 27.4369 0C24.2553 0 23.6343 0.0195847 23.5569 0.122317ZM23.8055 1.36928C23.666 1.64887 23.552 1.8996 23.552 1.92657C23.552 1.95355 25.0553 1.97562 26.8926 1.97562H30.2332L30.3645 1.51711C30.4367 1.26491 30.4958 1.01367 30.4958 0.958778C30.4958 0.884563 29.6708 0.859224 27.2774 0.859997L24.0591 0.861027L23.8055 1.36928ZM23.0266 2.94196C22.9845 3.00105 22.8211 3.30659 22.6634 3.62097C22.5056 3.93535 22.3304 4.23479 22.274 4.28632C22.2015 4.35255 19.4988 4.38639 13.058 4.40186L3.94448 4.42367L2.87396 9.62042C2.28522 12.4786 1.61081 15.7545 1.37542 16.9002L0.947401 18.9831H13.1079H25.2684V12.7728C25.2684 8.0571 25.291 6.53767 25.362 6.45942C25.4292 6.38547 25.9442 6.35635 27.186 6.35635C28.4782 6.35635 28.9353 6.3292 28.9913 6.24898C29.0698 6.13662 29.9496 3.08635 29.9496 2.9265C29.9496 2.78382 23.1282 2.79903 23.0266 2.94196ZM5.76329 6.52814C5.67747 6.62263 5.60717 6.72897 5.60709 6.76436C5.60702 6.79974 5.15286 9.03202 4.59774 11.7249C3.67585 16.1977 3.59846 16.6377 3.70246 16.8143C3.8184 17.011 4.07844 17.0645 4.26975 16.9311C4.37468 16.8578 6.38472 7.34682 6.40298 6.83745C6.41187 6.5881 6.22814 6.35635 6.02146 6.35635C5.96529 6.35635 5.84911 6.43365 5.76329 6.52814ZM9.25135 6.46372C9.1571 6.5412 8.83761 7.94578 8.10515 11.5025C7.5466 14.2149 7.08964 16.5166 7.08964 16.6176C7.08964 16.7187 7.13177 16.8478 7.18326 16.9044C7.30591 17.0395 7.67308 17.0368 7.77396 16.9002C7.81757 16.8411 8.32104 14.5175 8.89277 11.7365L9.93224 6.68018L9.7506 6.51826C9.53784 6.3286 9.43017 6.31683 9.25135 6.46372ZM12.6872 6.50667C12.6139 6.59694 12.1556 8.64618 11.5396 11.6375C10.4323 17.0157 10.4332 17.0075 10.9014 17.0075C11.0258 17.0075 11.171 16.95 11.2239 16.8796C11.3209 16.7511 13.3306 7.1569 13.331 6.82062C13.3313 6.6167 13.1051 6.35635 12.9276 6.35635C12.8625 6.35635 12.7544 6.42395 12.6872 6.50667ZM16.1842 6.47042C16.075 6.55829 15.8037 7.74083 15.0068 11.6027C13.8764 17.0798 13.8925 16.9343 14.4123 16.9915C14.6056 17.0127 14.673 16.9769 14.7354 16.8197C14.7788 16.7104 15.2703 14.4051 15.8278 11.6968C16.8648 6.65776 16.8809 6.54291 16.5649 6.40943C16.3877 6.33453 16.3443 6.34149 16.1842 6.47042ZM19.6176 6.4912C19.5502 6.56533 19.477 6.71033 19.4549 6.81332C19.0321 8.78593 17.4664 16.5233 17.4664 16.6405C17.4664 16.729 17.5085 16.8478 17.56 16.9044C17.6836 17.0406 18.0497 17.0363 18.1543 16.8976C18.2337 16.7923 20.2751 7.04653 20.2751 6.77303C20.2751 6.60596 20.0294 6.35635 19.8649 6.35635C19.7963 6.35635 19.6849 6.41699 19.6176 6.4912ZM23.0664 6.50667C22.9178 6.69332 20.8762 16.5837 20.9453 16.782C21.0008 16.9413 21.3069 17.0514 21.4849 16.9763C21.5497 16.9489 21.6377 16.8384 21.6805 16.7308C21.7882 16.4592 23.708 7.08741 23.708 6.83281C23.708 6.41811 23.3014 6.21144 23.0664 6.50667ZM26.0486 15.5895V23.9651H27.4406H28.8325L28.9244 23.5142C29.1992 22.165 30.3795 20.9889 31.6466 20.8016C32.2703 20.7094 32.9865 20.818 33.5164 21.085C34.3709 21.5157 35.2117 22.6734 35.3744 23.643L35.4285 23.9651H36.8241H38.2198V19.8135V15.6619L36.6751 11.4601L35.1303 7.25826L30.5895 7.2361L26.0486 7.21394V15.5895ZM27.9722 9.26214C27.8566 9.40275 27.8431 9.77829 27.8431 12.8526C27.8431 15.4085 27.867 16.3124 27.9367 16.3891C28.0718 16.5378 36.1966 16.5378 36.3317 16.3891C36.3832 16.3324 36.4253 16.1984 36.4253 16.0914C36.4253 15.8035 34.0272 9.33799 33.8739 9.21241C33.7747 9.13115 33.0567 9.10504 30.9221 9.10504C28.2885 9.10504 28.0927 9.11543 27.9722 9.26214ZM28.6233 12.8403V15.6332H32.0172C33.8838 15.6332 35.41 15.6042 35.4086 15.5688C35.4072 15.5333 34.9582 14.2867 34.4108 12.7986L33.4154 10.0928L31.0193 10.0702L28.6233 10.0474V12.8403ZM27.9796 17.6157C27.7811 17.743 27.8031 18.1694 28.0165 18.334C28.2156 18.4876 29.5675 18.5255 29.8988 18.3868C30.1557 18.2793 30.2296 17.9994 30.0713 17.7334C29.9499 17.5295 29.9172 17.523 29.0311 17.5255C28.5279 17.5269 28.0547 17.5675 27.9796 17.6157ZM0.848003 21.9466V23.9651H2.39843H3.94885L3.99675 23.643C4.07766 23.0982 4.48828 22.2684 4.9028 21.812C6.47975 20.0759 9.1642 20.5694 10.1687 22.78C10.3204 23.1138 10.4445 23.4559 10.4445 23.5402C10.4445 23.9517 10.4802 23.9651 11.5755 23.9651H12.6117L12.6658 23.643C12.8284 22.6734 13.6693 21.5157 14.5237 21.085C15.0537 20.818 15.7699 20.7094 16.3936 20.8016C17.6606 20.9889 18.8409 22.165 19.1158 23.5142L19.2076 23.9651H22.238H25.2684V21.9466V19.928H13.0582H0.848003V21.9466ZM6.41336 21.7997C5.40104 22.198 4.74902 23.2136 4.74902 24.3923C4.74902 25.4638 5.2482 26.3368 6.13576 26.8176C6.59085 27.0642 6.73277 27.0997 7.24428 27.0947C8.00224 27.0874 8.51492 26.8477 9.00379 26.2723C9.5167 25.6686 9.69536 25.1844 9.69669 24.3946C9.69927 22.8943 8.72229 21.7555 7.36271 21.6739C6.96769 21.6502 6.705 21.685 6.41336 21.7997ZM15.0861 21.7951C14.058 22.2001 13.4478 23.1691 13.4489 24.3946C13.45 25.9494 14.4921 27.0943 15.9059 27.0943C16.8981 27.0943 17.6791 26.5637 18.1453 25.5729C18.3245 25.1919 18.3566 25.0153 18.3598 24.3946C18.3641 23.5701 18.225 23.1528 17.737 22.5251C17.1544 21.7756 15.966 21.4484 15.0861 21.7951ZM31.3675 21.7683C29.6053 22.4005 29.0743 24.8854 30.3915 26.3356C31.3236 27.3618 32.9494 27.3567 33.8871 26.3245C34.3709 25.7918 34.5928 25.1662 34.5869 24.3517C34.5829 23.8092 34.5422 23.5741 34.3937 23.235C34.1524 22.6844 33.6306 22.1106 33.1638 21.8828C32.7013 21.6571 31.8319 21.6016 31.3675 21.7683ZM6.97261 22.9316C6.21526 23.1219 5.72584 23.9469 5.91395 24.7162C6.23079 26.0117 7.76834 26.2759 8.37362 25.1388C8.96556 24.0267 8.09197 22.6505 6.97261 22.9316ZM15.6035 22.938C15.0132 23.0838 14.5796 23.6733 14.5796 24.3299C14.5796 25.1836 15.0477 25.7693 15.7838 25.8365C16.553 25.9068 17.1434 25.383 17.2146 24.5674C17.2616 24.0291 17.2037 23.7853 16.9499 23.4533C16.6067 23.0042 16.108 22.8134 15.6035 22.938ZM31.8317 22.938C31.2439 23.0832 30.8079 23.6735 30.8079 24.3242C30.8079 25.1972 31.2624 25.768 32.012 25.8365C32.7812 25.9068 33.3716 25.383 33.4428 24.5674C33.4898 24.0291 33.4319 23.7853 33.1782 23.4533C32.835 23.0042 32.3363 22.8134 31.8317 22.938ZM6.86018 23.9601C6.66942 24.1701 6.64992 24.5855 6.82203 24.7749C7.29811 25.2991 8.05616 24.6552 7.65771 24.065C7.45579 23.7659 7.08129 23.7166 6.86018 23.9601ZM15.5294 23.9921C15.4361 24.1015 15.3598 24.2772 15.3598 24.3826C15.3598 24.6243 15.6907 24.9959 15.9059 24.9959C16.1254 24.9959 16.4521 24.6225 16.4521 24.3718C16.4521 23.8617 15.8516 23.6147 15.5294 23.9921ZM31.7471 23.9814C31.5227 24.2466 31.5423 24.6003 31.7936 24.8178C32.0636 25.0517 32.2549 25.0426 32.4888 24.785C32.7292 24.5205 32.7332 24.2216 32.4998 23.9801C32.2686 23.741 31.9501 23.7416 31.7471 23.9814Z" fill="#F57C00"/>
</svg>
