<svg width="10" height="7" viewBox="0 0 10 7" fill="none" xmlns="http://www.w3.org/2000/svg">
<path d="M4.99216 6.99763C4.82555 6.99809 4.6641 6.91676 4.53581 6.76775L0.257587 1.77034C0.111972 1.60069 0.0204009 1.3569 0.00301722 1.09261C-0.0143664 0.828322 0.0438616 0.565176 0.164892 0.361065C0.285922 0.156954 0.45984 0.0285965 0.648386 0.00422933C0.836931 -0.0201378 1.02466 0.0614814 1.17027 0.231132L4.99216 4.70882L8.81404 0.39105C8.88697 0.308027 8.9709 0.246028 9.06098 0.208615C9.15107 0.171203 9.24554 0.159115 9.33896 0.173047C9.43239 0.186979 9.52294 0.226656 9.60539 0.289797C9.68784 0.352938 9.76058 0.438299 9.81942 0.540973C9.88472 0.643741 9.93418 0.764305 9.96469 0.895111C9.9952 1.02592 10.0061 1.16415 9.99674 1.30114C9.98737 1.43813 9.95792 1.57093 9.91023 1.69123C9.86254 1.81152 9.79764 1.91672 9.7196 2.00022L5.44137 6.82772C5.3094 6.95317 5.15124 7.013 4.99216 6.99763Z" fill="#6A6A6A"/>
</svg>
