<svg width="26" height="16" viewBox="0 0 26 16" fill="none" xmlns="http://www.w3.org/2000/svg">
<path d="M25 14C25.5523 14 26 14.4477 26 15C26 15.5523 25.5523 16 25 16H1C0.447716 16 0 15.5523 0 15C0 14.4477 0.447715 14 1 14H25ZM25 7C25.5523 7 26 7.44772 26 8C26 8.55229 25.5523 9 25 9H1C0.447716 9 0 8.55228 0 8C0 7.44772 0.447715 7 1 7H25ZM25 0C25.5523 3.86553e-07 26 0.447715 26 1C26 1.55228 25.5523 2 25 2H1C0.447716 2 0 1.55228 0 1C0 0.447715 0.447715 2.0133e-08 1 0H25Z" fill="#6A6A6A"/>
</svg>
