<svg width="202" height="245" viewBox="0 0 202 245" fill="none" xmlns="http://www.w3.org/2000/svg">
<path fill-rule="evenodd" clip-rule="evenodd" d="M64.5895 9.02412L50.694 16.9833L31.4001 17.0135C8.979 17.0481 8.93122 17.0554 4.78546 21.1954C0.335958 25.6392 0.718696 15.3269 0.718696 130.732C0.718696 244.809 0.421282 235.711 4.2862 239.915C5.40808 241.136 7.42269 242.646 8.76349 243.273L11.2013 244.411L89.7785 244.416L168.355 244.421L171.402 242.838C174.712 241.119 177.251 238.095 178.175 234.771C178.492 233.634 178.675 221.286 178.676 200.994L178.679 169.01L181.483 166.854C184.837 164.276 190.588 158.315 192.753 155.172C195.386 151.35 198.609 144.123 199.96 139.009C201.143 134.531 201.264 133.159 201.473 121.909C201.677 110.934 201.612 109.493 200.84 107.867C199.829 105.741 199.764 105.706 187.932 101.106L178.923 97.6025L178.679 62.0703C178.437 26.7859 178.428 26.5239 177.38 24.59C176.128 22.2807 173.256 19.4543 170.878 18.1922C169.317 17.3636 167.449 17.2657 148.931 17.0432L128.689 16.7997L114.718 8.88779L100.748 0.97583L89.6166 1.02014L78.4851 1.06493L64.5895 9.02412ZM67.2711 13.8234L54.1069 21.2806L53.9675 25.9781L53.828 30.6761H89.699H125.57L125.431 25.9406L125.291 21.2046L112.127 13.7747L98.9627 6.34428L89.699 6.35499L80.4353 6.3657L67.2711 13.8234ZM82.6294 16.2096C80.9219 17.0675 80.6923 19.5774 82.2227 20.6481C83.1023 21.2631 84.6601 21.4252 89.699 21.4252C94.738 21.4252 96.2958 21.2631 97.1753 20.6481C98.7058 19.5774 98.4762 17.0675 96.7687 16.2096C95.1159 15.379 84.2822 15.379 82.6294 16.2096ZM11.6889 23.1303C9.26081 23.9877 7.26424 26.1524 6.5875 28.6609C6.22914 29.991 6.10969 61.67 6.19793 132.022L6.32568 233.466L7.3988 235.188C7.98876 236.136 9.33492 237.396 10.3905 237.988L12.3091 239.065L89.7654 239.057L167.222 239.049L169.172 237.959C170.457 237.241 171.496 236.129 172.219 234.699L173.316 232.529V202.445C173.316 185.302 173.13 172.361 172.884 172.361C172.647 172.361 171.824 172.688 171.056 173.088C169.218 174.046 168.509 174.008 166.612 172.853L165.028 171.888V200.532C165.028 227.664 164.98 229.219 164.136 229.982C163.315 230.724 157.44 230.788 89.5664 230.788H15.8883L15.1296 229.705C14.4485 228.735 14.3705 218.533 14.3705 130.623C14.3705 33.2727 14.3768 32.6173 15.3456 31.6499C16.2812 30.7155 16.9707 30.6761 32.4103 30.6761H48.4999V26.5375V22.399L31.0695 22.4204C17.3334 22.437 13.2257 22.5879 11.6889 23.1303ZM130.898 26.5375V30.6761H146.988C162.427 30.6761 163.117 30.7155 164.052 31.6499C165.008 32.6037 165.028 33.2727 165.028 64.0159V95.4081L166.278 94.9334C167.878 94.3257 170.465 94.3257 172.066 94.9334L173.316 95.4081V62.3434C173.316 40.2123 173.145 28.8254 172.799 27.9081C172.029 25.8695 169.447 23.4278 167.487 22.8839C166.502 22.6108 158.263 22.4034 148.329 22.4019L130.898 22.399V26.5375ZM20.2212 130.74V225.432H89.9428H159.664V197.29V169.149L155.554 165.885C148.619 160.379 142.468 151.73 139.633 143.499C137.325 136.801 136.749 132.065 136.751 119.835C136.752 109.906 136.843 108.674 137.671 107.317C138.668 105.684 139.548 105.263 152.107 100.404L159.421 97.5747V66.925V36.2753L89.8209 36.1619L20.2212 36.0489V130.74ZM35.09 59.0934C34.2153 60.427 34.7302 62.4749 36.0695 62.988C36.5141 63.1585 60.7753 63.2977 89.9828 63.2977C142.437 63.2977 143.099 63.286 144.062 62.3239C145.236 61.152 145.282 60.4543 144.278 59.0243L143.52 57.9419H89.6825H35.8457L35.09 59.0934ZM36.0183 86.0671C34.1144 87.3369 34.2572 89.953 36.2899 91.0392C36.9086 91.3698 54.9372 91.5373 89.9331 91.5373H142.644L143.841 90.342C145.293 88.8925 145.349 87.9533 144.062 86.6684C143.099 85.7063 142.442 85.6946 89.8209 85.7019C60.5242 85.7063 36.3133 85.8704 36.0183 86.0671ZM155.398 105.039L142.112 110.2V120.037C142.112 131.156 142.748 135.99 145.038 142.254C148.756 152.428 156.105 160.821 166.023 166.22L169.212 167.957L173.304 165.655C178.019 163.003 184.499 157.146 187.751 152.596C190.596 148.613 193.433 142.437 194.773 137.305C195.691 133.791 195.892 131.439 196.102 121.72L196.349 110.273L186.417 106.425C180.955 104.308 174.981 101.955 173.143 101.196C171.305 100.436 169.55 99.8286 169.243 99.8461C168.935 99.8636 162.706 102.2 155.398 105.039ZM35.9135 114.267C34.7155 114.746 34.2621 116.877 35.09 118.139L35.8457 119.29H81.8746C123.068 119.29 127.983 119.21 128.67 118.525C129.697 117.499 129.638 115.729 128.544 114.74C127.727 114.002 123.836 113.938 82.1033 113.973C57.0518 113.994 36.266 114.127 35.9135 114.267ZM172.018 130.58L162.619 139.921L159.477 136.909C157.749 135.252 156.036 133.897 155.671 133.897C154.351 133.897 152.839 135.402 152.839 136.714C152.839 137.7 153.872 139.053 157.094 142.286C160.556 145.758 161.623 146.556 162.811 146.556C164.064 146.556 165.783 145.046 174.889 135.954C185.996 124.862 186.66 123.921 184.739 122.002C182.864 120.13 181.832 120.826 172.018 130.58ZM35.0105 143.447C34.2606 144.589 34.2489 144.853 34.8959 146.003L35.617 147.286L81.6318 147.41C123.929 147.525 127.719 147.469 128.541 146.726C129.685 145.693 129.686 144.012 128.544 142.98C127.728 142.242 123.778 142.174 81.7488 142.174H35.8457L35.0105 143.447ZM35.09 171.565C34.2153 172.899 34.7302 174.946 36.0695 175.46C36.5141 175.63 60.7753 175.769 89.9828 175.769C142.437 175.769 143.099 175.758 144.062 174.795C145.236 173.624 145.282 172.926 144.278 171.496L143.52 170.413H89.6825H35.8457L35.09 171.565ZM36.4644 198.656C34.2894 199.532 34.0398 202.317 36.0183 203.636C36.3133 203.833 60.5242 203.997 89.8209 204.002C142.442 204.009 143.099 203.997 144.062 203.035C145.349 201.75 145.293 200.811 143.841 199.361L142.644 198.166L90.0867 198.197C61.0323 198.214 37.0534 198.419 36.4644 198.656Z" fill="white"/>
</svg>
