<svg width="39" height="29" viewBox="0 0 39 29" fill="none" xmlns="http://www.w3.org/2000/svg">
<path fill-rule="evenodd" clip-rule="evenodd" d="M14.5116 0.00055775C14.638 -0.00518928 14.7624 0.0336226 14.8633 0.110226L20.3906 4.31224C20.5633 4.44344 20.7078 4.60789 20.8157 4.7959L22.0416 6.93169C22.2532 7.30026 22.3116 7.73716 22.2043 8.14837L20.8692 13.2656C20.7649 13.6655 20.5118 14.0104 20.1616 14.2299L18.1194 15.5109C17.9716 15.6036 17.8102 15.6716 17.6413 15.7128H23.3258V5.41435C23.3258 4.51875 24.0517 3.79272 24.9474 3.79272H26.458H31.6414C33.6738 3.79272 35.1208 4.86508 36.0385 6.19326C36.9452 7.50562 37.3654 9.10348 37.3654 10.2933V13.5441V16.2533V20.0485C38.2301 20.0836 38.9204 20.7956 38.9204 21.6689V22.2158C38.9204 23.1114 38.1944 23.8374 37.2988 23.8374H35.3333C35.3379 23.9166 35.3401 23.9965 35.3401 24.0769C35.3401 26.3028 33.5839 28.1073 31.4174 28.1073C29.2509 28.1073 27.4946 26.3028 27.4946 24.0769C27.4946 23.9965 27.4969 23.9166 27.5014 23.8374H11.4894C11.494 23.9166 11.4962 23.9965 11.4962 24.0769C11.4962 26.3028 9.74002 28.1073 7.57354 28.1073C5.40705 28.1073 3.65072 26.3028 3.65072 24.0769C3.65072 23.9965 3.653 23.9166 3.65754 23.8374H2.65862C1.76305 23.8374 1.03699 23.1114 1.03699 22.2158V21.0197C0.430401 20.785 0.000240326 20.1961 0.000240326 19.5067V17.2899C0.000240326 16.6088 0.432129 16.0284 1.03699 15.8078V13.0024V9.96836L0.573212 9.48361C0.179588 9.07213 0.0306168 8.48435 0.180779 7.93505L1.88532 1.69903C2.07083 1.02025 2.67289 0.53859 3.37591 0.506643L14.5116 0.00055775ZM27.71 22.7563H11.2809C11.0692 22.1289 10.7108 21.5718 10.2479 21.1283H23.8663H28.743C28.2801 21.5718 27.9218 22.1289 27.71 22.7563ZM10.4152 24.0769C10.4152 22.4439 9.15246 21.1646 7.63959 21.1283H7.50748C5.99462 21.1646 4.73181 22.4439 4.73181 24.0769C4.73181 25.7335 6.03148 27.0263 7.57354 27.0263C9.11548 27.0263 10.4152 25.7335 10.4152 24.0769ZM7.57354 20.0465C7.59981 20.0465 7.62597 20.0467 7.65203 20.0472H23.3258V16.7938H10.9077H4.16921H1.57754C1.30348 16.7938 1.08132 17.0159 1.08132 17.2899V19.5067C1.08132 19.8052 1.32338 20.0472 1.62186 20.0472H7.27927H7.49494C7.5211 20.0467 7.54727 20.0465 7.57354 20.0465ZM3.86618 22.7563C4.07786 22.1289 4.43624 21.5718 4.89916 21.1283H2.11808V22.2158C2.11808 22.5144 2.36002 22.7563 2.65862 22.7563H3.86618ZM37.2988 22.7563H35.1247C34.913 22.1289 34.5547 21.5718 34.0918 21.1283H36.8248H37.2988C37.5973 21.1283 37.8393 21.3704 37.8393 21.6689V22.2158C37.8393 22.5143 37.5973 22.7563 37.2988 22.7563ZM34.2591 24.0769C34.2591 22.4439 32.9963 21.1646 31.4834 21.1283H31.3513C29.8384 21.1646 28.5757 22.4439 28.5757 24.0769C28.5757 25.7335 29.8754 27.0263 31.4174 27.0263C32.9594 27.0263 34.2591 25.7335 34.2591 24.0769ZM36.2843 20.0472H31.4959L31.4673 20.0468L31.4174 20.0465L31.3688 20.0467L31.3388 20.0472H24.4068V16.2533V5.41435C24.4068 5.11582 24.6488 4.87381 24.9474 4.87381H25.9174V9.21217C25.9174 10.1078 26.6435 10.8338 27.5391 10.8338H34.2331H36.2843V13.0036H34.2775C33.3819 13.0036 32.6559 13.7296 32.6559 14.6252V15.1722C32.6559 16.0678 33.3819 16.7938 34.2775 16.7938H36.2843V20.0472ZM2.11808 10.7869V12.4618H3.62867V11.8397L2.11808 10.7869ZM4.70975 12.593V13.0024V15.7128H9.18651L4.70975 12.593ZM11.6219 15.5909L12.9885 9.87717C13.0579 9.58683 12.8788 9.29517 12.5885 9.22572C12.2981 9.15628 12.0064 9.33536 11.937 9.62571L10.5664 15.3565L4.47829 11.1141L1.93083 9.33879L1.3544 8.73627C1.22316 8.59912 1.17353 8.40319 1.22359 8.22009L2.92813 1.98408C2.98997 1.75782 3.19062 1.59725 3.425 1.58661L13.862 1.11228L12.9707 5.3045C12.9086 5.5965 13.0949 5.88355 13.3871 5.94562C13.6791 6.0077 13.9661 5.82131 14.0281 5.5293L14.8876 1.48673L19.7365 5.17286C19.794 5.21661 19.8421 5.27143 19.8781 5.33409L21.104 7.46988C21.1745 7.59273 21.194 7.73837 21.1583 7.87544L19.8232 12.9926C19.7883 13.1259 19.704 13.241 19.5873 13.3142L17.5449 14.595C17.4836 14.6335 17.4151 14.6592 17.3436 14.6708L11.6219 15.5909ZM3.62867 15.7128V13.5429H2.11808V15.7128H3.62867ZM26.9985 4.87381V9.21217C26.9985 9.5107 27.2406 9.75271 27.5391 9.75271H33.6926V8.66781C33.6926 8.36926 33.9346 8.12726 34.2331 8.12726C34.5317 8.12726 34.7737 8.36926 34.7737 8.66781V9.75271H36.2519C36.148 8.84496 35.7923 7.73876 35.1491 6.80779C34.3821 5.69781 33.2374 4.87381 31.6414 4.87381H26.9985ZM36.2843 14.0846H34.2775C33.979 14.0846 33.737 14.3267 33.737 14.6252V15.1722C33.737 15.4707 33.979 15.7128 34.2775 15.7128H36.2843V14.0846ZM25.9174 13.5441C25.9174 13.2456 26.1595 13.0036 26.458 13.0036H28.5314C28.8299 13.0036 29.0719 13.2456 29.0719 13.5441C29.0719 13.8427 28.8299 14.0846 28.5314 14.0846H26.458C26.1595 14.0846 25.9174 13.8427 25.9174 13.5441ZM32.2983 24.0697C32.2983 24.6134 31.8768 25.0038 31.418 25.0038C30.9593 25.0038 30.5377 24.6134 30.5377 24.0697C30.5377 23.5261 30.9593 23.1356 31.418 23.1356C31.8768 23.1356 32.2983 23.5261 32.2983 24.0697ZM33.3794 24.0697C33.3794 25.1827 32.5013 26.0849 31.418 26.0849C30.3348 26.0849 29.4567 25.1827 29.4567 24.0697C29.4567 22.9568 30.3348 22.0545 31.418 22.0545C32.5013 22.0545 33.3794 22.9568 33.3794 24.0697ZM8.45451 24.0697C8.45451 24.6134 8.03289 25.0038 7.57419 25.0038C7.11538 25.0038 6.69386 24.6134 6.69386 24.0697C6.69386 23.5261 7.11538 23.1356 7.57419 23.1356C8.03289 23.1356 8.45451 23.5261 8.45451 24.0697ZM9.53559 24.0697C9.53559 25.1827 8.65743 26.0849 7.57419 26.0849C6.49094 26.0849 5.61278 25.1827 5.61278 24.0697C5.61278 22.9568 6.49094 22.0545 7.57419 22.0545C8.65743 22.0545 9.53559 22.9568 9.53559 24.0697Z" fill="#F57C00"/>
</svg>
