<svg width="35" height="29" viewBox="0 0 35 29" fill="none" xmlns="http://www.w3.org/2000/svg">
<path fill-rule="evenodd" clip-rule="evenodd" d="M10.0016 0.216941C9.88227 0.336285 9.78467 0.505801 9.78467 0.59375C9.78467 0.681699 9.88227 0.851215 10.0016 0.970559C10.1782 1.14713 10.2818 1.1875 10.5583 1.1875C10.7451 1.1875 10.898 1.2065 10.898 1.22973C10.898 1.25296 10.3469 2.40795 9.67334 3.79629L8.44873 6.32062V7.57632V8.83203H7.18701H5.92529V4.90193C5.92529 2.13906 5.90036 0.917195 5.84143 0.787832C5.74093 0.567105 5.40465 0.412137 5.18073 0.483164C4.96809 0.550703 0.201098 4.71779 0.0796022 4.9423C0.00538347 5.07961 -0.00997981 6.88327 0.00538347 13.6229L0.024903 22.1303L0.200134 22.2722C0.367497 22.4078 0.544212 22.4141 4.15302 22.4141H7.93068L7.65637 22.8273C7.43572 23.1596 7.352 23.2324 7.2288 23.1988C6.66214 23.0448 6.14075 23.0016 5.73982 23.0757C4.73794 23.261 4.01231 23.8034 3.57048 24.6973C3.30574 25.233 3.29053 25.3024 3.29053 25.9727C3.29053 26.6147 3.31272 26.7285 3.52543 27.1774C3.96844 28.1125 4.71939 28.6941 5.72275 28.879C6.98944 29.1124 8.27165 28.4392 8.84803 27.2383C9.04374 26.8304 9.08338 26.6527 9.10438 26.0879C9.1331 25.3133 8.97776 24.7847 8.56073 24.2384L8.31425 23.9154L8.83185 23.1648L9.34952 22.4141H17.2074H25.0653L25.5519 23.1268C25.8196 23.5188 26.0386 23.8821 26.0386 23.9341C26.0386 23.9862 25.9857 24.0726 25.9212 24.1261C25.7139 24.2982 25.3785 25.0565 25.3034 25.5235C24.9864 27.4921 26.7475 29.2369 28.6903 28.879C31.0729 28.44 31.9691 25.5914 30.2618 23.8841C29.5645 23.1868 28.5513 22.8935 27.5899 23.1107L27.0482 23.233L26.8833 23.0276C26.7926 22.9147 26.6638 22.7304 26.597 22.6182L26.4755 22.4141H28.7723C30.9229 22.4141 31.0802 22.405 31.2442 22.2722L31.4194 22.1303L31.4393 16.0379L31.4591 9.94531H32.3449H33.2307L33.2528 11.8446C33.2748 13.7388 33.2753 13.7442 33.4501 13.8856C33.6739 14.0667 33.9893 14.0666 34.213 13.8855L34.3882 13.7437L34.4085 9.46556L34.4289 5.18744L34.2101 4.96872C33.934 4.69255 33.7296 4.69211 33.4547 4.96694L33.2378 5.18388V7.00796V8.83203H32.3472H31.4565V6.56264V4.29326L31.2396 4.07632L31.0227 3.85937H29.9722H28.9217L28.7047 4.07632L28.4878 4.29326V6.56264V8.83203H27.2261H25.9644V7.56014V6.28833L25.3604 5.01815C25.0282 4.31961 24.4772 3.18896 24.1358 2.5057C23.7944 1.82244 23.5151 1.24628 23.5151 1.22543C23.5151 1.20457 23.668 1.1875 23.8548 1.1875C24.1313 1.1875 24.2349 1.14713 24.4115 0.970559C24.6859 0.696172 24.6859 0.491328 24.4115 0.216941L24.1945 0H17.2065H10.2186L10.0016 0.216941ZM11.1164 3.45985C10.5064 4.7097 10.0073 5.74505 10.0073 5.76064C10.0073 5.7763 13.247 5.78906 17.2065 5.78906C21.1661 5.78906 24.4058 5.7763 24.4058 5.76064C24.4058 5.74505 23.9067 4.7097 23.2967 3.45985L22.1877 1.1875H17.2065H12.2254L11.1164 3.45985ZM2.90088 3.90769L1.17529 5.43014V13.3655V21.3008H2.95654H4.73779V11.8379C4.73779 6.6333 4.71271 2.3773 4.68213 2.38005C4.65155 2.38287 3.84991 3.07028 2.90088 3.90769ZM29.6753 12.2055C29.6753 17.2939 29.6515 19.4164 29.5929 19.545C29.5476 19.6444 29.4291 19.7629 29.3297 19.8082C29.1996 19.8675 25.889 19.8906 17.537 19.8906H5.92529V20.5957V21.3008H18.0972H30.269V13.1738V5.04687H29.9722H29.6753V12.2055ZM9.63623 10.7218C9.63623 14.3223 9.64217 14.4829 9.7892 14.8759C9.96383 15.3426 10.4345 15.869 10.8806 16.0966C11.428 16.3759 11.9541 16.4012 17.2065 16.4012C22.459 16.4012 22.9851 16.3759 23.5325 16.0966C23.9786 15.869 24.4493 15.3426 24.6239 14.8759C24.7709 14.4829 24.7769 14.3223 24.7769 10.7218V6.97656H17.2065H9.63623V10.7218ZM5.92529 14.3242V18.7031H17.2065H28.4878V14.3242V9.94531H27.2316H25.9753L25.9472 12.3389C25.9212 14.5636 25.9079 14.7626 25.7603 15.1591C25.3264 16.3237 24.4334 17.1307 23.2762 17.4035C22.5832 17.5669 11.8299 17.5669 11.1369 17.4035C9.97972 17.1307 9.08664 16.3237 8.65283 15.1591C8.50514 14.7626 8.49193 14.5636 8.46588 12.3389L8.43782 9.94531H7.18152H5.92529V14.3242ZM5.61743 24.2985C4.64739 24.6451 4.16906 25.778 4.59559 26.7187C4.7939 27.1561 4.99229 27.361 5.43693 27.5873C5.74435 27.7437 5.88084 27.7687 6.29936 27.745C6.9386 27.7089 7.41887 27.4302 7.74172 26.9082C7.94056 26.5865 7.96616 26.4803 7.96482 25.9823C7.96341 25.426 7.7867 24.8792 7.63804 24.9711C7.60383 24.9922 7.3667 25.319 7.11101 25.6971C6.85533 26.0753 6.59452 26.4265 6.53129 26.4775C6.34314 26.6295 5.96938 26.5897 5.78977 26.3986C5.51991 26.1113 5.58552 25.8626 6.14543 25.0509C6.4262 24.6439 6.63987 24.2849 6.6202 24.2531C6.56417 24.1624 5.91646 24.1917 5.61743 24.2985ZM27.7902 24.2574C27.7691 24.2916 27.9842 24.6618 28.2683 25.08C28.5523 25.4982 28.7847 25.8862 28.7847 25.9421C28.7847 26.1568 28.6082 26.4155 28.4039 26.5001C28.042 26.65 27.8319 26.4966 27.2751 25.6757C26.9985 25.2678 26.7434 24.9519 26.7081 24.9736C26.6728 24.9955 26.5872 25.1621 26.5177 25.3439C26.2207 26.1217 26.5413 27.0522 27.2593 27.4961C27.5809 27.6949 27.6879 27.7207 28.1909 27.7207C28.6939 27.7207 28.8009 27.6949 29.1225 27.4961C30.3806 26.7183 30.2089 24.8815 28.8242 24.3029C28.5461 24.1866 27.8528 24.1562 27.7902 24.2574Z" fill="#F57C00"/>
</svg>
