<svg width="110" height="77" viewBox="0 0 110 77" fill="none" xmlns="http://www.w3.org/2000/svg">
<path fill-rule="evenodd" clip-rule="evenodd" d="M76.3748 1.93719C75.9207 2.2406 75.0915 2.79036 74.5321 3.15904C73.7251 3.69067 73.1712 4.43649 71.8551 6.76486C70.9422 8.37957 67.597 14.2154 64.421 19.7335C61.2448 25.2516 58.3459 30.3839 57.9784 31.1387L57.3107 32.5107L57.9322 33.623C58.6179 34.8497 59.5264 35.4478 60.7045 35.4478C61.4363 35.4478 72.4929 40.9275 78.207 44.1221L80.3812 45.3376L81.0392 44.7074C81.4009 44.3607 81.6436 43.9906 81.5784 43.8849C81.5131 43.7793 79.9666 42.9109 78.1418 41.955C76.317 40.999 73.9538 39.7564 72.8901 39.1936C71.8263 38.6305 69.2062 37.2878 67.0673 36.2098L63.1786 34.2496L62.86 32.9209C62.5677 31.703 62.587 31.4358 63.0921 29.7123C64.0606 26.4077 64.6231 25.3181 69.3074 17.6786C71.835 13.5566 74.1965 9.6766 74.5558 9.05625C75.5729 7.29915 75.7711 7.21115 76.8252 8.0486C77.3203 8.44194 78.4295 9.19212 79.2901 9.71576C80.151 10.2392 81.2389 11.0522 81.7077 11.5222C82.3999 12.2163 89.7399 21.5174 94.4701 27.6951C95.4807 29.0151 95.4995 29.0741 95.4372 30.7335L95.3736 32.4258L93.8626 32.3837L92.3516 32.3417V33.0582C92.3516 33.4523 92.5542 34.1783 92.802 34.6717C93.0498 35.1649 94.1104 38.6692 95.1591 42.4588L97.0659 49.3489V60.1071V70.8654H62.7362H28.4065L28.2857 68.206L28.1648 65.5467L26.3516 65.5281C25.3543 65.5179 24.4025 65.4908 24.2362 65.4676C24.0007 65.435 23.934 63.4775 23.934 56.6016V47.7775H21.7582H19.5824L19.5304 51.9478C19.5016 54.2416 19.5057 56.5533 19.5393 57.0852C19.5729 57.617 19.5304 59.7114 19.445 61.739L19.2896 65.4258H15.9565C13.089 65.4258 12.6018 65.3705 12.4708 65.0291C12.3872 64.8108 12.3799 62.7711 12.4551 60.4961C12.5303 58.2212 12.5054 54.4016 12.4002 52.0082L12.2087 47.6566L11.6172 47.5732C11.2917 47.5272 10.3397 47.563 9.50177 47.6527L7.97797 47.8159V58.6725V69.5292L16.0164 69.593L24.0549 69.6566L24.1758 72.0742L24.2966 74.4918L63.0384 74.5529L101.78 74.6141V53.7059V32.7976L101.115 32.6521C99.7392 32.3504 99.768 32.3951 99.9143 30.7884C100.111 28.6254 99.9264 27.9842 98.9385 27.4016C98.3999 27.0837 94.4991 22.4061 88.073 14.3723C82.5592 7.47902 77.857 1.73678 77.6239 1.61203C77.3142 1.44642 76.9779 1.53394 76.3748 1.93719ZM76.6373 5.91291C76.6373 6.11913 78.435 7.64559 78.678 7.64559C79.0165 7.64559 78.7546 7.00662 78.1635 6.38966C77.5533 5.75286 76.6373 5.46662 76.6373 5.91291ZM60.6813 31.0961C60.6813 31.2291 60.7835 31.3379 60.9088 31.3379C61.034 31.3379 61.2035 31.2291 61.2857 31.0961C61.3679 30.9632 61.2654 30.8544 61.0582 30.8544C60.851 30.8544 60.6813 30.9632 60.6813 31.0961ZM38.0425 33.7444C36.2011 34.1834 34.0559 36.1914 33.5903 37.912C33.2316 39.2386 33.4172 41.6317 33.9629 42.7114C35.3266 45.4104 38.3314 46.6429 41.3839 45.7554C43.9252 45.0166 45.2128 43.2846 45.4012 40.3514C45.5486 38.0525 45.0869 36.8193 43.5348 35.3675C41.9102 33.8481 39.9892 33.2802 38.0425 33.7444ZM7.89093 34.8702C7.6146 36.8867 7.70865 45.3142 8.00964 45.5003C8.16001 45.5932 9.47566 45.6693 10.9332 45.6693H13.5836L14.4513 44.8017C15.2102 44.0428 15.3318 43.7553 15.4219 42.5098C15.5607 40.5914 15.1229 39.7883 13.4975 38.9782C12.803 38.632 11.9515 38.3489 11.6053 38.3489C11.2591 38.3489 10.8452 38.2183 10.6857 38.0588C10.303 37.6761 10.3119 36.4213 10.6977 36.3911C10.8641 36.3781 11.7071 36.351 12.5714 36.3307L14.1428 36.2939V35.0852V33.8764L11.0942 33.8089L8.04566 33.7415L7.89093 34.8702ZM17.709 34.0802C17.6091 34.2342 17.4897 36.8493 17.4435 39.8915C17.3763 44.3353 17.4237 45.4638 17.6853 45.6297C18.0552 45.8639 23.4507 45.921 24.0351 45.6966C24.3034 45.5937 24.4175 45.2332 24.4175 44.4879V43.4258H22.3626H20.3076V41.9753V40.5247H22.3759H24.4441L24.3704 39.3764L24.2966 38.228L22.3021 38.1579L20.3076 38.0875V37.2513V36.4148H22.1066C23.0961 36.4148 23.955 36.3331 24.0155 36.2335C24.0759 36.1339 24.1639 35.5626 24.2111 34.9643L24.2966 33.8764L21.0936 33.8384C18.8975 33.8125 17.8335 33.8884 17.709 34.0802ZM25.4817 34.0927C25.4107 34.2782 25.3867 34.8492 25.4288 35.362C25.5016 36.2473 25.5506 36.2976 26.407 36.3686L27.3082 36.4433L27.374 41.0829L27.4395 45.7225L28.7034 45.7955L29.9673 45.8683L30.0331 41.2021L30.0988 36.5357L31.1263 36.4615L32.1538 36.387V35.2179C32.1538 34.3751 32.0472 34.0081 31.7713 33.9022C31.561 33.8215 30.0889 33.7555 28.5001 33.7555C26.252 33.7555 25.5826 33.8302 25.4817 34.0927ZM47.9822 34.0487C47.9143 34.2252 47.8881 36.9242 47.9239 40.0463L47.989 45.7225L49.1286 45.7958L50.2685 45.8693L50.3374 43.3782L50.4065 40.8873L52.1508 40.8165L53.8949 40.7457L53.964 43.2341L54.0329 45.7225H55.2417H56.4505V39.7994V33.8764L55.3865 33.8002C54.699 33.7511 54.2512 33.8365 54.1209 34.042C54.0102 34.2168 53.9178 35.2031 53.9157 36.2335L53.912 38.1071H52.2243C50.2852 38.1071 50.3338 38.1719 50.2267 35.4478L50.1648 33.8764L49.1351 33.8019C48.4456 33.7521 48.0646 33.8336 47.9822 34.0487ZM95.0109 34.8393C95.0109 35.3535 96.3667 40.267 96.7465 41.1291C97.0337 41.7814 97.0726 41.5142 97.1336 38.4814C97.1706 36.6264 97.1469 34.9672 97.0806 34.7946C96.9037 34.3333 95.0109 34.3741 95.0109 34.8393ZM37.956 36.3437C37.3922 36.55 36.4943 37.4358 36.1198 38.1555C35.5623 39.2272 35.6864 40.9998 36.3916 42.0374C38.1615 44.6423 41.5621 44.1194 42.9447 41.0295C43.5865 39.5951 42.8987 37.4933 41.5101 36.6469C40.7599 36.1893 38.8287 36.0246 37.956 36.3437ZM10.4937 40.8598C10.4229 41.044 10.3992 41.6694 10.4408 42.2499C10.5126 43.2498 10.5583 43.309 11.3179 43.3818C11.7588 43.4241 12.2755 43.3293 12.4662 43.171C12.9587 42.7624 12.9011 41.4045 12.371 40.9248C11.8338 40.4386 10.6707 40.3983 10.4937 40.8598ZM31.5927 47.6938C31.5023 47.7842 31.4285 52.7374 31.4285 58.7011V69.5442L37.412 69.4794L43.3956 69.4148L43.4654 67.3057L43.535 65.1964L39.7182 65.1299L35.901 65.0632L35.8324 62.4643L35.7637 59.8654H39.6401H43.5164V57.6956V55.5261L39.7087 55.4593L35.901 55.3928V53.7005V52.0082L39.6483 52.008L43.3956 52.0075V49.8322V47.6566L37.5762 47.5932C34.3755 47.5584 31.6828 47.6036 31.5927 47.6938ZM48.1676 47.7366C47.9285 47.8884 47.8765 50.2388 47.9259 58.6725L47.989 69.4148L50.1043 69.4847L52.2197 69.5546V64.8308V60.1071H55.599H58.9786L59.0441 64.761L59.1098 69.4148L61.3485 69.4845L63.5872 69.5538L63.5243 58.6053L63.4615 47.6566L61.3461 47.5867C60.1828 47.5483 59.2157 47.5483 59.1974 47.5867C59.179 47.6252 59.0973 49.4516 59.016 51.6456L58.8681 55.6346H55.6043H52.3406L52.2995 52.0082C52.2768 50.0137 52.2497 48.1916 52.2391 47.9588C52.2224 47.5935 51.9635 47.5362 50.3461 47.5393C49.3157 47.5415 48.3354 47.6302 48.1676 47.7366ZM67.1282 47.697C67.0395 47.7854 66.967 48.7646 66.967 49.8728V51.8873H68.645C69.6403 51.8873 70.3925 51.9995 70.4933 52.163C70.5871 52.3145 70.6751 56.2581 70.6888 60.9267L70.7142 69.4148H72.8901H75.0659L75.1868 60.7115L75.3076 52.0082L76.8791 51.9715C77.7434 51.9512 78.5866 51.9241 78.7527 51.911C78.9703 51.8939 79.0549 51.2784 79.0549 49.7115V47.5357H73.1722C69.9365 47.5357 67.2167 47.6082 67.1282 47.697ZM82.564 47.8021C82.4927 47.988 82.4627 52.9269 82.4973 58.7775L82.5604 69.4148L84.6704 69.4847L86.7805 69.5543L86.8463 65.0122L86.912 60.4698L88.967 60.3279C92.4713 60.0856 94.6541 58.629 95.4103 56.0277C96.4363 52.4983 94.7914 49.1182 91.5693 48.1353C89.7667 47.585 82.7468 47.3254 82.564 47.8021ZM86.9338 53.1044C86.8451 53.7738 86.8431 54.6985 86.9294 55.1593L87.0868 55.9972H88.5775C90.3561 55.9972 91.0609 55.5918 91.2763 54.4442C91.5681 52.888 90.28 51.8922 87.9707 51.8888C87.1016 51.8873 87.0941 51.8963 86.9338 53.1044Z" fill="#F57C00"/>
</svg>
