<svg width="39" height="28" viewBox="0 0 39 28" fill="none" xmlns="http://www.w3.org/2000/svg">
<path fill-rule="evenodd" clip-rule="evenodd" d="M8.4999 0.069525C8.86453 0.101908 10.4264 0.239157 11.9707 0.374577C16.8421 0.801841 16.6523 0.760706 17.6254 1.59852C17.9042 1.83857 19.0976 2.86472 20.2773 3.87878C23.873 6.96987 24.0176 7.10012 24.1382 7.35911C24.2025 7.49699 24.2551 7.69797 24.2551 7.80562C24.2551 7.91336 23.7249 9.30431 23.0769 10.8966C22.4289 12.489 21.8808 13.8545 21.8589 13.9311C21.8228 14.0571 21.893 14.0703 22.6002 14.0703H23.3814L23.4093 13.0559C23.4323 12.2174 23.4641 11.9956 23.5926 11.7773C23.8172 11.3958 24.2077 11.1754 24.659 11.1754H25.035V8.44254C25.035 5.88111 25.0446 5.69039 25.1886 5.40261C25.2731 5.23369 25.4748 5.01138 25.6371 4.90851L25.932 4.72145L29.7826 4.69869C34.0232 4.67363 34.2292 4.69241 34.6513 5.14179C34.7846 5.28381 35.632 7.1123 36.911 10.018L38.9573 14.6671L38.9786 19.188L39 23.709L38.8278 24.0216C38.5293 24.5634 38.2314 24.6525 36.7175 24.6525H35.424L35.3275 25.0702C34.9383 26.7543 33.4192 27.9942 31.7449 27.9942C29.8987 27.9942 28.4562 26.7772 28.0433 24.8713L27.9959 24.6525H19.5058H11.0157L10.9628 24.9906C10.8642 25.6201 10.4187 26.4195 9.88004 26.9335C8.89659 27.872 7.62861 28.2099 6.35775 27.8722C5.13399 27.547 4.10889 26.5132 3.73732 25.2293L3.63944 24.8912H2.27919C0.733002 24.8912 0.510868 24.8324 0.214096 24.3457C0.0406342 24.0611 0.0369682 24.005 0.0141144 21.2947C-0.0141983 17.9358 -0.115826 18.2077 1.1683 18.2077C1.64017 18.2077 2.02625 18.1853 2.02625 18.1579C2.02625 18.1305 1.58105 16.8863 1.03695 15.393C0.179935 13.0411 0.0474205 12.6141 0.0460129 12.2006C0.0445328 11.7668 0.171745 11.3956 1.43637 8.14274C3.09464 3.87734 3.06063 3.955 3.34563 3.78322C3.62938 3.61231 3.89074 3.61176 4.41682 3.78091C4.64527 3.85435 4.85204 3.89421 4.87629 3.86947C4.90063 3.84472 5.21074 3.11328 5.56562 2.24404C6.34948 0.323656 6.34394 0.334397 6.65249 0.142486C6.92158 -0.024839 7.27677 -0.038922 8.4999 0.069525ZM7.70045 0.846477C8.0143 0.861674 8.18839 0.904241 8.18924 0.965824C8.19073 1.07729 4.68185 9.77995 4.59395 9.88267C4.51252 9.97783 3.82327 9.37656 3.77117 9.16499C3.74387 9.054 4.02357 8.26718 4.56322 6.93693C5.02199 5.80592 5.69159 4.15375 6.05122 3.26541C6.97657 0.979509 7.02204 0.876871 7.12265 0.848386C7.17234 0.834303 7.43229 0.833428 7.70045 0.846477ZM10.5668 1.09949C10.8671 1.13227 11.8616 1.22338 12.7769 1.30191C14.3904 1.44051 14.44 1.4499 14.4062 1.61118C14.3642 1.8124 9.44115 13.9274 9.36932 14.0068C9.32946 14.0507 5.69283 11.0041 5.33023 10.623C5.26339 10.5528 5.71725 9.35985 7.16695 5.79558L9.09243 1.06146L9.55667 1.05072C9.81195 1.04483 10.2665 1.06679 10.5668 1.09949ZM15.8531 1.58174C16.2276 1.64595 16.8149 1.94606 16.9918 2.16359C17.0693 2.25875 16.5954 3.48978 14.4205 8.8426L11.7542 15.4049L11.4335 15.3641C11.0007 15.3092 10.4257 15.0541 10.2125 14.8226L10.0378 14.6329L12.4395 8.72245C13.7604 5.47159 14.9622 2.51647 15.1101 2.15548C15.2581 1.79449 15.402 1.50329 15.4298 1.50846C15.4578 1.51355 15.6482 1.54657 15.8531 1.58174ZM19.8234 4.5877C20.9251 5.53643 21.829 6.34855 21.8321 6.39231C21.8392 6.49256 18.0928 15.7541 18.0038 15.8561C17.9515 15.9161 12.7373 15.5366 12.654 15.4668C12.6221 15.44 17.7401 2.85493 17.7814 2.85883C17.8028 2.8609 18.7218 3.63889 19.8234 4.5877ZM4.26863 4.62032C4.40808 4.66671 4.52212 4.73251 4.52212 4.76648C4.52212 4.80046 4.15359 5.72731 3.70316 6.82618C3.25274 7.92505 2.8842 8.85047 2.8842 8.88277C2.8842 8.915 2.63852 9.63816 2.33823 10.4899C2.03795 11.3417 1.79226 12.1005 1.79226 12.1764C1.79226 12.2522 2.2788 13.5598 2.87344 15.082C3.46816 16.6042 3.97997 17.9319 4.01078 18.0323C4.06623 18.2126 4.05976 18.2146 3.49826 18.1914L2.9296 18.1679L1.89841 15.3434C1.31828 13.7543 0.864815 12.3929 0.861774 12.231C0.858028 12.0352 1.31469 10.7646 2.29144 8.25278C3.83529 4.28265 3.74621 4.44639 4.26863 4.62032ZM33.9033 5.65228C34.1072 5.75277 33.9584 5.43658 36.2535 10.649L38.0927 14.8262L38.1214 15.8737L38.1502 16.9211L37.2143 16.9478C36.3486 16.9725 36.2634 16.9889 36.0766 17.1682C35.7895 17.4436 35.7003 17.8826 35.7331 18.8588C35.7765 20.1536 35.9854 20.3432 37.3778 20.3515L38.1383 20.356V20.7936V21.2312H36.0419C34.3759 21.2312 33.9277 21.2091 33.8581 21.1236C33.81 21.0645 33.5209 20.8986 33.2155 20.7551C32.236 20.2945 31.0219 20.3277 30.0129 20.8425C29.7694 20.9668 29.5479 21.1051 29.5209 21.1499C29.4896 21.2014 28.8171 21.2312 27.6823 21.2312H25.893V13.5257C25.893 6.16181 25.8993 5.81443 26.0356 5.68856C26.1644 5.56969 26.5455 5.55744 29.9549 5.56229C32.4527 5.56579 33.7896 5.59627 33.9033 5.65228ZM33.4068 6.96916C33.4664 7.08946 34.0689 8.45551 34.7456 10.0048C35.7948 12.4064 35.9657 12.8521 35.9049 13.0283L35.8337 13.2349L31.5546 13.2555C28.4593 13.2704 27.2461 13.2511 27.1692 13.186C27.0232 13.0625 27.011 6.99422 27.1565 6.84583C27.2261 6.77486 28.0261 6.75036 30.2743 6.75036H33.2986L33.4068 6.96916ZM22.9709 7.31638C23.1839 7.49516 23.3689 7.68882 23.3821 7.74675C23.4022 7.83467 20.3436 15.4766 20.1103 15.9212C20.0456 16.0446 19.9504 16.0628 19.4733 16.043C19.0231 16.0243 18.9173 15.9961 18.9373 15.9003C18.9754 15.7187 22.4659 7.11691 22.5288 7.04984C22.559 7.01769 22.7579 7.1376 22.9709 7.31638ZM32.8978 7.88304C33.7485 9.81281 34.8625 12.3913 34.8625 12.4302C34.8625 12.4571 33.2825 12.479 31.3516 12.479H27.8406L27.8613 10.0324L27.8819 7.58579L30.3151 7.56478L32.7483 7.54378L32.8978 7.88304ZM6.70927 12.9368C8.53383 14.5046 10.1832 15.8615 10.3747 15.9523C10.8244 16.1654 10.9813 16.1909 12.7507 16.3398C14.0133 16.4461 15.9357 16.6149 18.3079 16.8277L18.8733 16.8784V17.5435V18.2086L11.9217 18.1882L4.97012 18.1679L3.80362 15.1842L2.63719 12.2006L2.89154 11.4447C3.03138 11.029 3.20118 10.5532 3.26888 10.3876L3.39196 10.0864L6.70927 12.9368ZM24.9059 12.1472C25.0212 12.277 25.035 12.6098 25.035 15.2502V18.2077H24.645H24.2551V15.2364C24.2551 12.4588 24.2643 12.2564 24.3977 12.1333C24.5831 11.9622 24.7457 11.9666 24.9059 12.1472ZM23.3971 16.5368V18.2077H21.5642H19.7313V17.5712V16.9347H19.9692C20.2711 16.9347 20.611 16.7568 20.7593 16.521C20.8226 16.4204 20.9898 16.0515 21.1306 15.7014C21.2716 15.3513 21.4223 15.0202 21.4656 14.9654C21.5206 14.896 21.8235 14.866 22.4707 14.866H23.3971V16.5368ZM27.7064 15.2702C27.8247 15.3404 27.8429 15.4818 27.8429 16.3296C27.8429 17.1762 27.8237 17.3256 27.7002 17.4395C27.5211 17.6048 27.3433 17.6071 27.1854 17.4462C27.0874 17.3461 27.0629 17.1266 27.0629 16.3482C27.0629 15.6975 27.0939 15.3435 27.1565 15.2797C27.2697 15.1642 27.5206 15.1598 27.7064 15.2702ZM38.1383 18.6453V19.4807H37.3583H36.5784V18.6453V17.8099H37.3583H38.1383V18.6453ZM25.035 20.157V21.2312L17.3329 21.2309L9.63084 21.2305L9.27986 20.9908C8.20071 20.2539 6.49533 20.2534 5.35784 20.9896L4.98471 21.2312H2.92047H0.856312V20.157V19.0829H12.9457H25.035V20.157ZM32.2705 21.3155C32.7501 21.412 33.4946 21.8409 33.8197 22.2079C34.274 22.7209 34.557 23.4267 34.5655 24.0681C34.5749 24.7705 34.5091 25.0664 34.2185 25.6286C33.143 27.7093 30.0907 27.6109 29.104 25.4637C28.9198 25.0628 28.8958 24.9142 28.8958 24.1751C28.8958 23.3753 28.9071 23.3183 29.1619 22.839C29.5865 22.0403 30.3409 21.4862 31.2329 21.318C31.7472 21.221 31.7998 21.2209 32.2705 21.3155ZM7.87242 21.3148C8.75456 21.4995 9.56797 22.1712 9.96653 23.0438C10.1432 23.4306 10.1744 23.6061 10.1744 24.2149C10.1744 24.8205 10.1429 24.9998 9.97004 25.3781C9.62047 26.1433 8.99088 26.7368 8.23752 27.0113C7.74794 27.1898 6.83336 27.1654 6.29371 26.9594C4.93089 26.4393 4.12722 24.7579 4.56416 23.3408C4.99578 21.941 6.49081 21.0254 7.87242 21.3148ZM38.1383 22.8463C38.1383 23.3158 38.1041 23.6212 38.0447 23.6818C37.9796 23.7482 37.566 23.7773 36.6863 23.7773H35.4214L35.3374 23.3777C35.2911 23.158 35.1654 22.8011 35.0579 22.5847C34.9505 22.3683 34.8625 22.1722 34.8625 22.1488C34.8625 22.1255 35.5995 22.1064 36.5004 22.1064H38.1383V22.8463ZM28.5448 22.1494C28.5448 22.173 28.4794 22.3251 28.3994 22.4875C28.2538 22.783 28.1325 23.1481 28.0434 23.5584L27.9959 23.7773H19.5046H11.0135L10.963 23.4337C10.9352 23.2447 10.8098 22.8688 10.6844 22.5983L10.4564 22.1064H19.5006C24.4749 22.1064 28.5448 22.1257 28.5448 22.1494ZM4.11412 22.2854C3.93941 22.56 3.6906 23.2968 3.63055 23.7176L3.57657 24.0955H2.38979C0.81139 24.0955 0.856312 24.1283 0.856312 22.9771V22.1064H2.54219H4.22807L4.11412 22.2854ZM32.348 22.5309C33.6695 23.0198 33.8531 24.9617 32.6496 25.7207C31.0475 26.7311 29.2413 24.8771 30.2332 23.2404C30.6455 22.5601 31.5799 22.2467 32.348 22.5309ZM7.99293 22.5352C9.21965 23.0819 9.46385 24.7427 8.44367 25.6012C7.38908 26.4886 5.83143 25.8758 5.57327 24.4719C5.44473 23.773 5.91918 22.883 6.58464 22.5747C6.95582 22.4028 7.65193 22.3832 7.99293 22.5352ZM31.9565 23.2764C32.2077 23.3258 32.571 23.7261 32.6279 24.0161C32.7175 24.473 32.3913 24.9876 31.9289 25.1192C31.1302 25.3465 30.4629 24.3241 30.9758 23.659C31.1301 23.4588 31.5724 23.2048 31.7207 23.2311C31.7542 23.2371 31.8603 23.2575 31.9565 23.2764ZM7.63922 23.3241C8.15688 23.5062 8.40397 24.1493 8.14939 24.6516C7.97663 24.9924 7.73429 25.1299 7.30664 25.1299C6.99364 25.1299 6.88913 25.0902 6.70397 24.9013C6.4405 24.6326 6.35775 24.3574 6.42709 23.9805C6.47778 23.7046 6.85216 23.2999 7.05659 23.2999C7.11415 23.2999 7.20798 23.284 7.26507 23.2645C7.32224 23.245 7.49056 23.2719 7.63922 23.3241Z" fill="#F57C00"/>
</svg>
