<svg width="19" height="24" viewBox="0 0 19 24" fill="none" xmlns="http://www.w3.org/2000/svg">
<path d="M18.8639 16.608C18.8639 16.848 18.8159 17.16 18.7199 17.544C18.6239 17.928 18.5279 18.232 18.4319 18.456C18.2559 18.904 17.7119 19.384 16.7999 19.896C15.9679 20.344 15.1439 20.568 14.3279 20.568C14.0879 20.568 13.8479 20.552 13.6079 20.52C13.3679 20.488 13.1119 20.432 12.8399 20.352L12.2159 20.16L10.7999 19.656C9.9359 19.336 9.1599 18.96 8.4719 18.528C7.3359 17.824 6.1519 16.864 4.9199 15.648C3.6879 14.432 2.7279 13.248 2.0399 12.096C1.6079 11.408 1.2399 10.632 0.935896 9.76799L0.695896 9.09599C0.567896 8.72799 0.471896 8.47999 0.407896 8.35199C0.343896 8.22399 0.279896 8.01599 0.215896 7.72799L0.0478965 6.95999C-0.000103516 6.73599 -0.0161035 6.50399 -0.000103516 6.26399C-0.000103516 5.43199 0.231896 4.59999 0.695896 3.76799C1.1919 2.85599 1.6639 2.31199 2.1119 2.13599C2.3359 2.03999 2.6399 1.94399 3.0239 1.84799C3.4079 1.75199 3.7199 1.70399 3.9599 1.70399C4.0879 1.70399 4.1839 1.71999 4.2479 1.75199C4.4079 1.79999 4.6479 2.13599 4.9679 2.75999L5.3519 3.50399C5.5119 3.82399 5.6719 4.10399 5.8319 4.34399C5.9919 4.58399 6.1279 4.82399 6.2399 5.06399C6.2719 5.09599 6.3519 5.20799 6.4799 5.39999C6.6079 5.59199 6.7039 5.75199 6.7679 5.87999C6.8319 6.00799 6.8639 6.13599 6.8639 6.26399C6.8639 6.43999 6.7359 6.65599 6.4799 6.91199C6.2239 7.16799 5.9439 7.41599 5.6399 7.65599C5.3359 7.89599 5.0639 8.13599 4.8239 8.37599C4.5839 8.61599 4.4559 8.81599 4.4399 8.97599C4.4399 9.05599 4.4639 9.15999 4.5119 9.28799L4.6079 9.55199C4.6239 9.59999 4.6879 9.71199 4.7999 9.88799C4.9119 10.064 4.9679 10.144 4.9679 10.128C5.6399 11.36 6.4159 12.416 7.2959 13.296C8.1759 14.176 9.2239 14.952 10.4399 15.624C10.4559 15.624 10.5359 15.672 10.6799 15.768C10.8239 15.864 10.9359 15.928 11.0159 15.96L11.2799 16.08C11.3759 16.128 11.4799 16.144 11.5919 16.128C11.7519 16.128 11.9519 16 12.1919 15.744C12.4319 15.488 12.6719 15.216 12.9119 14.928C13.1519 14.64 13.3999 14.36 13.6559 14.088C13.9119 13.816 14.1359 13.688 14.3279 13.704C14.4399 13.704 14.5599 13.736 14.6879 13.8C14.8159 13.864 14.9759 13.96 15.1679 14.088C15.3599 14.216 15.4719 14.296 15.5039 14.328L17.8079 15.624C18.4319 15.928 18.7679 16.16 18.8159 16.32C18.8479 16.384 18.8639 16.48 18.8639 16.608Z" fill="#F57C00"/>
</svg>
