<svg width="39" height="29" viewBox="0 0 39 29" fill="none" xmlns="http://www.w3.org/2000/svg">
<path fill-rule="evenodd" clip-rule="evenodd" d="M3.72614 1.08692C3.51159 1.05528 3.2989 1.15494 3.18591 1.34004L2.16375 3.01457L6.08493 13.132C6.15736 13.3188 6.19452 13.5175 6.19452 13.718V17.4609C6.19452 17.7595 6.43653 18.0014 6.73506 18.0014H17.8068C18.0017 18.0014 18.1815 17.8966 18.2774 17.7269L18.4524 17.4171L11.6835 16.0562L11.5999 16.0394L11.5254 15.9977L7.94599 13.9872C7.68569 13.8409 7.59321 13.5114 7.7394 13.2512C7.8856 12.9908 8.21512 12.8984 8.4754 13.0446L11.581 14.7889L17.1895 4.68233L13.5212 2.67911L8.67451 10.7778C8.52122 11.0339 8.18928 11.1172 7.93312 10.9639C7.67695 10.8106 7.59356 10.4787 7.74686 10.2226L12.4448 2.3724L3.72614 1.08692ZM18.0195 5.41465L22.1623 10.3013C22.3032 10.4674 22.3307 10.7018 22.2319 10.8959L22.0466 11.2604C21.9112 11.5264 22.0172 11.8518 22.2832 11.9872C22.5494 12.1225 22.8748 12.0166 23.0101 11.7504L23.1954 11.3861C23.4916 10.8037 23.4095 10.1005 22.987 9.60217L18.3386 4.11919L18.2735 4.04251L18.1853 3.99433L13.5832 1.48124L13.4985 1.43498L13.403 1.42091L3.88382 0.0173971C3.24018 -0.0775012 2.60214 0.221464 2.26316 0.77678L1.10186 2.67926L1.09094 2.69714L1.08143 2.71581L0.247597 4.35505C0.0652832 4.71345 0.0226293 5.1268 0.12791 5.51487L1.97793 12.3341C2.00606 12.4378 2.00266 12.5474 1.96815 12.6491L0.0858994 18.1995C0.0290238 18.3673 0 18.5432 0 18.7204V21.0551V22.4871C0 23.3827 0.726029 24.1087 1.62162 24.1087H3.60914C3.62321 26.3175 5.44927 28.1039 7.6998 28.1039C9.95034 28.1039 11.7764 26.3175 11.7905 24.1087H24.0623C24.3608 24.1087 24.6029 23.8667 24.6029 23.5681C24.6029 23.2696 24.3608 23.0276 24.0623 23.0276H11.6482C11.1766 21.3188 9.58751 20.0621 7.6998 20.0621C7.00712 20.0621 6.35465 20.2313 5.78283 20.53C5.74154 20.5199 5.69839 20.5145 5.65398 20.5145H1.08108V18.7204C1.08108 18.6613 1.09075 18.6026 1.10972 18.5467L2.99196 12.9964C3.09547 12.6912 3.10568 12.362 3.02129 12.0509L1.17128 5.2318C1.13618 5.10245 1.1504 4.96467 1.21118 4.8452L1.49645 4.28438L5.0769 13.5226C5.10105 13.585 5.11343 13.6512 5.11343 13.718V17.4609C5.11343 18.3566 5.83946 19.0825 6.73506 19.0825H17.8068C18.3914 19.0825 18.9309 18.7678 19.2186 18.2588L19.7604 17.3001L20.8644 15.3467C21.0241 15.0644 21.3947 14.9852 21.6557 15.1777L22.2793 15.6373C22.4176 15.7393 22.4991 15.9007 22.4991 16.0725V20.5145H14.3468C14.0483 20.5145 13.8062 20.7566 13.8062 21.0551C13.8062 21.3537 14.0483 21.5956 14.3468 21.5956H23.0396H28.0065C27.4575 22.28 27.1299 23.1439 27.1299 24.0831C27.1299 26.3037 28.9615 28.1039 31.2207 28.1039C33.4712 28.1039 35.2973 26.3175 35.3114 24.1087H37.2989C38.1945 24.1087 38.9205 23.3827 38.9205 22.4871V22.0778C38.9205 21.4045 38.4948 20.8305 37.8978 20.6105V13.6836C37.8978 13.5169 37.8721 13.3512 37.8216 13.1922L35.5552 6.06374C35.3413 5.39061 34.7162 4.93344 34.0098 4.93344H26.6775C25.7818 4.93344 25.0559 5.65946 25.0559 6.55506V18.542C25.0559 18.8406 25.2978 19.0825 25.5964 19.0825C25.8949 19.0825 26.1369 18.8406 26.1369 18.542V6.55506C26.1369 6.25653 26.3789 6.01452 26.6775 6.01452H34.0098C34.2453 6.01452 34.4537 6.16692 34.5249 6.39128L36.7913 13.5198C36.8082 13.5728 36.8167 13.628 36.8167 13.6836V20.5145H33.2666C33.2221 20.5145 33.179 20.5199 33.1377 20.53C32.5659 20.2313 31.9134 20.0621 31.2207 20.0621C30.5282 20.0621 29.8757 20.2313 29.3041 20.5299C29.2629 20.5198 29.22 20.5145 29.1757 20.5145H23.5802V16.0725C23.5802 15.5573 23.3354 15.0728 22.9208 14.7672L22.2973 14.3075C21.514 13.7301 20.4021 13.9677 19.9233 14.8148L19.0121 16.4269L12.6215 15.1421L18.0195 5.41465ZM37.2989 23.0276H35.169C35.0232 22.4992 34.7705 22.0139 34.435 21.5956H37.3573C37.6235 21.5956 37.8394 21.8115 37.8394 22.0778V22.4871C37.8394 22.7857 37.5974 23.0276 37.2989 23.0276ZM4.4855 21.5956C4.15005 22.0139 3.89729 22.4992 3.75142 23.0276H1.62162C1.32309 23.0276 1.08108 22.7857 1.08108 22.4871V21.5956H4.4855ZM27.6125 7.44652H28.153H32.7552H33.1553L33.2722 7.82927L34.8062 12.8555L35.0193 13.5538H34.2893H31.2212H31.0599L30.9248 13.4653L29.6607 12.637C29.5727 12.5793 29.4697 12.5486 29.3645 12.5486H28.153H27.6125V12.008V7.98706V7.44652ZM28.6936 8.5276V11.4675H29.3645C29.6803 11.4675 29.9892 11.5596 30.2533 11.7327L31.3824 12.4727H33.5591L32.355 8.5276H28.6936ZM27.6125 15.5263C27.6125 15.2278 27.8546 14.9858 28.153 14.9858H29.6871C29.9857 14.9858 30.2276 15.2278 30.2276 15.5263C30.2276 15.8249 29.9857 16.0668 29.6871 16.0668H28.153C27.8546 16.0668 27.6125 15.8249 27.6125 15.5263ZM7.6998 27.0228C9.37962 27.0228 10.7095 25.6892 10.7095 24.0831C10.7095 22.4769 9.37962 21.1432 7.6998 21.1432C6.02 21.1432 4.69014 22.4769 4.69014 24.0831C4.69014 25.6892 6.02 27.0228 7.6998 27.0228ZM8.66369 24.0768C8.66369 24.5727 8.24959 25.0062 7.6994 25.0062C7.14922 25.0062 6.73511 24.5727 6.73511 24.0768C6.73511 23.581 7.14922 23.1474 7.6994 23.1474C8.24959 23.1474 8.66369 23.581 8.66369 24.0768ZM9.74477 24.0768C9.74477 25.1872 8.82903 26.0873 7.6994 26.0873C6.56978 26.0873 5.65403 25.1872 5.65403 24.0768C5.65403 22.9664 6.56978 22.0663 7.6994 22.0663C8.82903 22.0663 9.74477 22.9664 9.74477 24.0768ZM31.2207 27.0228C32.9005 27.0228 34.2303 25.6892 34.2303 24.0831C34.2303 22.4769 32.9005 21.1432 31.2207 21.1432C29.5409 21.1432 28.211 22.4769 28.211 24.0831C28.211 25.6892 29.5409 27.0228 31.2207 27.0228ZM32.1857 24.0768C32.1857 24.5727 31.7715 25.0062 31.2214 25.0062C30.6712 25.0062 30.257 24.5727 30.257 24.0768C30.257 23.581 30.6712 23.1474 31.2214 23.1474C31.7715 23.1474 32.1857 23.581 32.1857 24.0768ZM33.2668 24.0768C33.2668 25.1872 32.351 26.0873 31.2214 26.0873C30.0917 26.0873 29.176 25.1872 29.176 24.0768C29.176 22.9664 30.0917 22.0663 31.2214 22.0663C32.351 22.0663 33.2668 22.9664 33.2668 24.0768Z" fill="#F57C00"/>
</svg>
