<svg width="39" height="28" viewBox="0 0 39 28" fill="none" xmlns="http://www.w3.org/2000/svg">
<path fill-rule="evenodd" clip-rule="evenodd" d="M13.6476 0.129919C13.3031 0.275459 8.86102 4.62726 8.65116 5.0248C8.50821 5.29549 8.50049 5.50442 8.50049 9.08559C8.50049 12.6525 8.50876 12.8768 8.6496 13.1464C8.73164 13.3033 9.47742 14.0928 10.3068 14.9006C11.6559 16.2146 11.8535 16.3789 12.1809 16.4583C12.6892 16.5817 19.2071 16.5817 19.7154 16.4583C20.043 16.3789 20.2392 16.2156 21.5834 14.9042C22.5087 14.0015 23.145 13.3175 23.2406 13.1226C23.3891 12.8199 23.3958 12.6452 23.3941 9.08052C23.3926 5.60495 23.3827 5.33411 23.2467 5.0471C23.046 4.62349 18.6295 0.291073 18.2318 0.127688C17.8141 -0.0438518 14.0546 -0.0420051 13.6476 0.129919ZM11.6814 3.14155L9.35834 5.42826V6.18003V6.93173H15.9482H22.538V6.18319V5.43457L20.2164 3.14471L17.8949 0.85477H15.9497H14.0045L11.6814 3.14155ZM3.49245 8.14159C1.7008 9.90706 0.18202 11.4614 0.117447 11.5956C0.0162991 11.8058 0 12.5943 0 17.278C0 22.1717 0.0128677 22.7431 0.128599 22.9837C0.305238 23.3507 0.572496 23.502 1.12433 23.5472L1.59326 23.5857L1.73246 24.1893C2.3314 26.7869 4.90728 28.4339 7.52566 27.8935C9.41004 27.5046 10.9209 25.9943 11.3167 24.1039L11.4172 23.6241H18.1084H24.7996V24.5369V25.4496L24.2455 25.4888C23.7546 25.5234 23.6636 25.5554 23.4467 25.7692C23.2212 25.9917 23.1998 26.0578 23.1744 26.6098C23.1409 27.3362 23.273 27.7114 23.6256 27.8913C23.8363 27.9987 24.2021 28.0119 26.4457 27.9926L29.0238 27.9703L29.2513 27.7191C29.465 27.4832 29.4788 27.428 29.4788 26.8115C29.4788 25.7245 29.2205 25.4703 28.1165 25.4703H27.5291V24.5472V23.6241H28.3791H29.2291L31.5972 20.9126L33.9652 18.201L36.1867 18.1626C38.5812 18.1211 38.6632 18.1071 38.8753 17.7026C39.0418 17.3849 39.0415 15.7088 38.8748 15.3908C38.6428 14.9483 38.5353 14.9318 35.8916 14.9318C33.2456 14.9318 32.973 14.9672 32.3848 15.3874C32.2106 15.5119 31.5326 16.2306 30.8783 16.9843C30.2239 17.7381 29.6414 18.4056 29.5837 18.4675C29.4957 18.562 29.4788 17.9266 29.4788 14.5252V10.4702H30.5316H31.5844V10.9268C31.5844 11.8375 31.7995 12.0087 32.9441 12.0087C33.6553 12.0087 33.6986 11.999 33.9422 11.7842L34.1969 11.5598V8.89328V6.2268L33.9422 6.00234C33.6986 5.78757 33.6553 5.77788 32.9441 5.77788C32.1632 5.77788 31.8177 5.87811 31.6949 6.14042C31.6595 6.21603 31.6114 6.60673 31.588 7.00866L31.5454 7.73943H30.5316H29.5178L29.4788 6.55981L29.4398 5.38011L29.1851 5.15595L28.9304 4.93172H26.9993C24.8872 4.93172 24.842 4.94041 24.6042 5.39411C24.5055 5.58234 24.4876 6.18757 24.4876 9.34598C24.4876 11.4926 24.4565 13.1565 24.4142 13.2662C24.306 13.5469 20.8503 17.3325 20.5619 17.4863C20.338 17.6056 19.9145 17.618 15.9469 17.6209C11.9289 17.6239 11.5587 17.6133 11.3315 17.4895C11.0405 17.331 7.58946 13.5446 7.48215 13.2662C7.43964 13.1559 7.40868 11.4121 7.40868 9.13098C7.40868 5.40718 7.40073 5.17918 7.26605 5.05903C6.9311 4.76003 6.89187 4.79203 3.49245 8.14159ZM25.3287 9.60483C25.3069 13.3585 25.3033 13.4377 25.1381 13.7395C25.0455 13.9087 24.4527 14.6183 23.8208 15.3164C21.5598 17.8142 21.2765 18.099 20.8629 18.289L20.4714 18.4687L15.9793 18.4695C11.2876 18.4703 11.2212 18.466 10.7124 18.1297C10.4164 17.9339 6.90552 14.0768 6.72069 13.7442C6.60457 13.5352 6.58733 13.1123 6.56737 9.98944C6.55497 8.05382 6.52011 6.47019 6.48977 6.47019C6.45944 6.47019 5.17984 7.70751 3.64624 9.21982L0.857848 11.9695V12.4891V13.0087H1.7217C2.57253 13.0087 2.58898 13.0121 2.81351 13.2335L3.04146 13.4584V14.843C3.04146 16.2204 3.04037 16.2289 2.83955 16.4643L2.63765 16.701H1.74775H0.857848V19.6645V22.628L1.06716 22.7065C1.49258 22.866 1.5814 22.7909 1.7302 22.1455C2.04706 20.7716 2.92035 19.6327 4.21125 18.91C5.25829 18.3237 6.79602 18.1873 7.99966 18.574C9.64338 19.1019 10.906 20.4682 11.2915 22.1359L11.4311 22.7395L20.026 22.7539L28.6209 22.7683V14.2731V5.77788H26.9859H25.351L25.3287 9.60483ZM32.4422 8.89328V11.1625H32.9101H33.3781V8.89328V6.62404H32.9101H32.4422V8.89328ZM9.35834 9.08559V10.3933H15.9482H22.538V9.08559V7.77789H15.9482H9.35834V9.08559ZM29.5117 8.65013C29.4887 8.70936 29.4806 8.94405 29.4938 9.17167L29.5178 9.5856L30.5547 9.60706L31.5916 9.6286L31.5685 9.10705L31.5454 8.58559L30.5495 8.56405C29.7533 8.54682 29.5453 8.56405 29.5117 8.65013ZM9.35834 11.9902V12.741L10.8409 14.2018L12.3234 15.6626H15.9506H19.5778L21.0579 14.1969L22.538 12.7313V11.9854V11.2395H15.9482H9.35834V11.9902ZM0.857848 14.8549V15.8549H1.52073H2.18361V14.8549V13.8549H1.52073H0.857848V14.8549ZM33.2665 15.8924C32.8829 16.0273 32.6355 16.2754 30.8887 18.278L29.4797 19.8934L29.4792 20.9126C29.479 21.4732 29.505 21.93 29.5372 21.9278C29.5695 21.9254 30.4204 20.9706 31.4284 19.8058C32.4364 18.6411 33.3603 17.6045 33.4816 17.5023L33.7019 17.3164H35.9186H38.1352V16.5472V15.7779L35.8541 15.7813C34.1034 15.7839 33.5018 15.8097 33.2665 15.8924ZM24.514 18.9317C24.2793 19.025 24.2135 19.283 24.366 19.5125C24.4896 19.6986 24.5062 19.701 25.6497 19.701C26.9175 19.701 27.0166 19.6683 26.9693 19.2652C26.9302 18.931 26.6815 18.8567 25.6184 18.8609C25.1037 18.863 24.6067 18.8948 24.514 18.9317ZM5.63551 19.279C4.92389 19.4316 4.24595 19.8149 3.65778 20.3974C2.86739 21.1801 2.49743 22.0618 2.49743 23.1626C2.49743 24.2562 2.86903 25.1392 3.66535 25.9379C5.26445 27.5416 7.75206 27.5466 9.34952 25.9496C10.1812 25.118 10.5281 24.2978 10.5281 23.1626C10.5281 22.0314 10.181 21.2071 9.35841 20.3845C8.34912 19.3751 7.02359 18.9816 5.63551 19.279ZM24.514 20.6241C24.2793 20.7174 24.2135 20.9754 24.366 21.2048C24.4896 21.3908 24.5066 21.3934 25.6436 21.3934C26.8866 21.3934 26.9832 21.3648 26.9832 20.9977C26.9832 20.6223 26.7583 20.5466 25.6595 20.5521C25.1222 20.5547 24.6067 20.5871 24.514 20.6241ZM5.96594 20.8448C5.28044 21.0222 4.67379 21.4961 4.35701 22.1018C4.23387 22.3371 4.17413 22.6145 4.14894 23.0681C4.11587 23.6628 4.12968 23.7368 4.36059 24.1995C4.65265 24.7845 5.08181 25.1756 5.67022 25.3928C6.83736 25.8235 8.10346 25.3207 8.66005 24.2055C9.42002 22.6828 8.39607 20.9295 6.6806 20.8161C6.41623 20.7986 6.09462 20.8115 5.96594 20.8448ZM5.92749 21.7467C4.66622 22.2862 4.67714 24.0595 5.94504 24.582C6.56729 24.8385 7.29638 24.6279 7.7551 24.0593C7.97517 23.7865 7.99358 23.7173 7.99358 23.1626C7.99358 22.6079 7.97517 22.5387 7.7551 22.2659C7.29623 21.6971 6.54335 21.4832 5.92749 21.7467ZM25.6574 24.5472V25.4703H26.1643H26.6713V24.5472V23.6241H26.1643H25.6574V24.5472ZM24.0639 26.3755C24.0396 26.3994 24.0197 26.5863 24.0197 26.7909V27.1626H26.3203H28.6209V26.7428V26.323L26.3645 26.3274C25.1235 26.3299 24.0882 26.3515 24.0639 26.3755Z" fill="#F57C00"/>
</svg>
